<?xml version="1.0" encoding="UTF-8"?>
<svg width="10px" height="10px" viewBox="0 0 10 10" version="1.1" xmlns="http://www.w3.org/2000/svg" xmlns:xlink="http://www.w3.org/1999/xlink">
    <!-- Generator: Sketch 51.2 (57519) - http://www.bohemiancoding.com/sketch -->
    <title>icn_close</title>
    <desc>Created with Sketch.</desc>
    <defs></defs>
    <g id="icn_close" stroke="none" stroke-width="1" fill="none" fill-rule="evenodd">
        <path d="M6.24137931,4.98029557 L8.8817734,7.66009852 C9.03940887,7.77832512 9.03940887,8.01477833 8.8817734,8.13300493 L8.13300493,8.8817734 C8.01477833,9.03940887 7.77832512,9.03940887 7.66009852,8.8817734 L4.98029557,6.24137931 L2.33990148,8.8817734 C2.18226601,9.03940887 1.98522167,9.03940887 1.86699507,8.8817734 L1.1182266,8.13300493 C0.960591133,8.01477833 0.960591133,7.77832512 1.1182266,7.66009852 L3.75862069,4.98029557 L1.1182266,2.33990148 C0.960591133,2.18226601 0.960591133,1.98522167 1.1182266,1.86699507 L1.86699507,1.1182266 C1.98522167,0.960591133 2.18226601,0.960591133 2.33990148,1.1182266 L4.98029557,3.75862069 L7.66009852,1.1182266 C7.77832512,0.960591133 8.01477833,0.960591133 8.13300493,1.1182266 L8.8817734,1.86699507 C9.03940887,1.98522167 9.03940887,2.18226601 8.8817734,2.33990148 L6.24137931,4.98029557 Z" fill="#ffffff"></path>
    </g>
</svg>