<?xml version="1.0" encoding="iso-8859-1"?>
<!-- Generator: Adobe Illustrator 19.0.0, SVG Export Plug-In . SVG Version: 6.00 Build 0)  -->
<svg version="1.1" id="Layer_1" xmlns="http://www.w3.org/2000/svg" xmlns:xlink="http://www.w3.org/1999/xlink" x="0px" y="0px"
	 viewBox="0 0 511.999 511.999" style="enable-background:new 0 0 511.999 511.999;" xml:space="preserve">
<g>
	<g>
		<g>
			<path d="M431.619,0H80.381C44.93,0,16.089,28.841,16.089,64.292v383.416c0,35.451,28.841,64.291,64.292,64.291h351.238
				c35.451,0,64.291-28.84,64.291-64.291V64.292C495.91,28.841,467.069,0,431.619,0z M255.999,32.972
				c62.445,0,113.249,50.804,113.249,113.251c0,7.341-5.952,13.294-13.294,13.294H156.043c-7.342,0-13.294-5.953-13.294-13.294
				C142.749,83.774,193.553,32.972,255.999,32.972z M184.127,464.097c-23.841,5.07-47.301-15.612-54.827-45.631
				c-15.316-61.108-52.003-88.387-60.393-127.834c-9.985-46.95,9.516-90.877,43.556-98.117
				c34.038-7.239,69.725,24.953,79.709,71.901c6.735,31.67,1.165,68.134,23.466,135.687
				C225.34,429.493,207.967,459.026,184.127,464.097z M443.092,290.631c-8.39,39.447-45.077,66.726-60.393,127.834
				c-7.526,30.019-30.985,50.703-54.827,45.631c-23.84-5.07-41.214-34.604-31.512-63.994
				c22.302-67.553,16.732-104.017,23.466-135.687c9.984-46.949,45.67-79.14,79.709-71.901
				C433.575,199.754,453.075,243.681,443.092,290.631z"/>
			<path d="M242.705,96.244c0-7.341,5.952-13.294,13.294-13.294c7.342,0,13.294,5.953,13.294,13.294v36.685h72.351
				c-6.417-41.497-42.38-73.369-85.645-73.369s-79.228,31.873-85.645,73.369h72.351V96.244z"/>
		</g>
	</g>
</g>
<g>
</g>
<g>
</g>
<g>
</g>
<g>
</g>
<g>
</g>
<g>
</g>
<g>
</g>
<g>
</g>
<g>
</g>
<g>
</g>
<g>
</g>
<g>
</g>
<g>
</g>
<g>
</g>
<g>
</g>
</svg>
